<svg width="36" height="36" viewBox="0 0 36 36" fill="none" xmlns="http://www.w3.org/2000/svg">
<rect width="36" height="36" rx="4" fill="#FFF7E7"/>
<path d="M21.2727 12H13.0909L9 19.2222V22.1111H10.6364C10.6364 22.8773 10.895 23.6121 11.3553 24.1539C11.8156 24.6956 12.4399 25 13.0909 25C13.7419 25 14.3662 24.6956 14.8265 24.1539C15.2869 23.6121 15.5455 22.8773 15.5455 22.1111H20.4545C20.4545 22.8773 20.7131 23.6121 21.1735 24.1539C21.6338 24.6956 22.2581 25 22.9091 25C23.5601 25 24.1844 24.6956 24.6447 24.1539C25.105 23.6121 25.3636 22.8773 25.3636 22.1111H27V18.2593C27 16.8148 26.5714 15.8519 25.3636 15.8519H23.7273L21.2727 12ZM13.5 13.4444H16.7727V15.8519H11.8636L13.5 13.4444ZM18 13.4444H20.8636L22.4673 15.8519H18V13.4444ZM13.0909 20.6667C13.4164 20.6667 13.7286 20.8188 13.9587 21.0897C14.1889 21.3606 14.3182 21.728 14.3182 22.1111C14.3182 22.4942 14.1889 22.8616 13.9587 23.1325C13.7286 23.4034 13.4164 23.5556 13.0909 23.5556C12.7654 23.5556 12.4533 23.4034 12.2231 23.1325C11.9929 22.8616 11.8636 22.4942 11.8636 22.1111C11.8636 21.728 11.9929 21.3606 12.2231 21.0897C12.4533 20.8188 12.7654 20.6667 13.0909 20.6667ZM22.9091 20.6667C23.2346 20.6667 23.5467 20.8188 23.7769 21.0897C24.0071 21.3606 24.1364 21.728 24.1364 22.1111C24.1364 22.4942 24.0071 22.8616 23.7769 23.1325C23.5467 23.4034 23.2346 23.5556 22.9091 23.5556C22.5836 23.5556 22.2714 23.4034 22.0413 23.1325C21.8111 22.8616 21.6818 22.4942 21.6818 22.1111C21.6818 21.728 21.8111 21.3606 22.0413 21.0897C22.2714 20.8188 22.5836 20.6667 22.9091 20.6667Z" fill="#777E90"/>
</svg>
