<svg width="64" height="64" viewBox="0 0 64 64" fill="none" xmlns="http://www.w3.org/2000/svg">
<rect width="64" height="64" rx="16" fill="#FFB800" fill-opacity="0.12"/>
<path fill-rule="evenodd" clip-rule="evenodd" d="M14.2223 34.4576C14.5427 30.0247 18.0275 26.5831 22.463 26.3012C25.1156 26.1326 28.3589 26 32 26C35.6411 26 38.8844 26.1326 41.537 26.3012C45.9725 26.5831 49.4572 30.0247 49.7776 34.4576C49.907 36.2468 50 38.1699 50 40C50 41.8301 49.907 43.7532 49.7776 45.5424C49.4572 49.9753 45.9725 53.4169 41.537 53.6988C38.8844 53.8674 35.6411 54 32 54C28.3589 54 25.1156 53.8674 22.463 53.6988C18.0275 53.4169 14.5427 49.9753 14.2223 45.5424C14.093 43.7532 14 41.8301 14 40C14 38.1699 14.093 36.2468 14.2223 34.4576ZM36 38C36 39.4806 35.1956 40.7732 34 41.4649V44C34 45.1046 33.1046 46 32 46C30.8954 46 30 45.1046 30 44V41.4649C28.8044 40.7732 28 39.4806 28 38C28 35.7909 29.7909 34 32 34C34.2091 34 36 35.7909 36 38Z" fill="#FFB800"/>
<path fill-rule="evenodd" clip-rule="evenodd" d="M22 20C22 14.4772 26.4772 10 32 10C37.5228 10 42 14.4772 42 20V28C42 29.1046 41.1046 30 40 30C38.8954 30 38 29.1046 38 28V20C38 16.6863 35.3137 14 32 14C28.6863 14 26 16.6863 26 20V28C26 29.1046 25.1046 30 24 30C22.8954 30 22 29.1046 22 28V20Z" fill="#FFB800"/>
</svg>
