<svg width="224" height="19" viewBox="0 0 224 19" fill="none" xmlns="http://www.w3.org/2000/svg">
<path d="M170.081 18.2008L173.983 0.79917H181.202C183.078 0.79917 184.5 1.20637 185.466 2.02078C186.451 2.81856 186.943 3.91551 186.943 5.31164C186.943 6.22576 186.766 7.0651 186.413 7.82964C186.06 8.59418 185.559 9.25069 184.908 9.79917C184.277 10.3476 183.515 10.7798 182.623 11.0956C181.75 11.3947 180.774 11.5443 179.697 11.5443H175.098L173.593 18.2008H170.081ZM175.711 8.75208H180.17C180.876 8.75208 181.48 8.58587 181.982 8.25346C182.502 7.92105 182.837 7.41413 182.985 6.73269C183.078 6.30056 183.153 5.95983 183.208 5.71053C183.283 5.46122 183.32 5.26177 183.32 5.11219C183.32 4.68006 183.153 4.32272 182.818 4.04017C182.502 3.741 181.982 3.59141 181.257 3.59141H176.882L175.711 8.75208Z" fill="url(#paint0_linear_90_14512)"/>
<path d="M190.958 18.2008H187.446L191.348 0.79917H198.734C200.554 0.79917 201.939 1.19806 202.886 1.99585C203.834 2.77701 204.308 3.84072 204.308 5.18698C204.308 5.8518 204.196 6.49169 203.973 7.10665C203.769 7.72161 203.453 8.29501 203.026 8.82687C202.617 9.3421 202.115 9.79917 201.521 10.1981C200.926 10.5803 200.239 10.8712 199.458 11.0706L201.939 18.2008H198.176L196.03 11.4446H192.463L190.958 18.2008ZM197.535 8.75208C198.241 8.75208 198.845 8.58587 199.347 8.25346C199.848 7.92105 200.183 7.40582 200.35 6.70776C200.443 6.29224 200.517 5.95983 200.573 5.71053C200.647 5.46122 200.684 5.26177 200.684 5.11219C200.684 4.68006 200.517 4.32272 200.183 4.04017C199.867 3.741 199.347 3.59141 198.622 3.59141H194.219L193.076 8.75208H197.535Z" fill="url(#paint1_linear_90_14512)"/>
<path d="M213.104 18.5C212.156 18.5 211.264 18.367 210.428 18.1011C209.592 17.8186 208.849 17.3947 208.198 16.8296C207.567 16.2479 207.065 15.5166 206.693 14.6357C206.322 13.7548 206.136 12.7161 206.136 11.5194C206.136 10.0402 206.378 8.63574 206.861 7.3061C207.344 5.95984 208.022 4.78809 208.895 3.79086C209.787 2.77701 210.846 1.97922 212.072 1.39751C213.299 0.79917 214.655 0.5 216.142 0.5C217.089 0.5 217.981 0.641275 218.817 0.923824C219.653 1.20637 220.387 1.6385 221.019 2.22022C221.651 2.78532 222.152 3.50831 222.524 4.3892C222.896 5.25346 223.081 6.28393 223.081 7.48061C223.081 8.95983 222.84 10.3726 222.357 11.7188C221.874 13.0485 221.195 14.2202 220.322 15.2341C219.449 16.2313 218.399 17.0291 217.173 17.6274C215.946 18.2091 214.59 18.5 213.104 18.5ZM213.354 15.6828C214.767 15.6828 215.937 15.2673 216.866 14.4363C217.795 13.5886 218.427 12.4003 218.761 10.8712L219.347 8.27839C219.421 7.99585 219.467 7.73823 219.486 7.50554C219.505 7.25623 219.514 7.03186 219.514 6.83241C219.514 5.70222 219.198 4.83795 218.566 4.23961C217.953 3.62466 217.052 3.31718 215.863 3.31718C214.451 3.31718 213.28 3.741 212.351 4.58864C211.422 5.41967 210.79 6.59972 210.456 8.12881L209.871 10.7216C209.796 11.0042 209.75 11.2701 209.731 11.5194C209.713 11.7521 209.703 11.9681 209.703 12.1676C209.703 13.2978 210.01 14.1704 210.623 14.7853C211.255 15.3837 212.165 15.6828 213.354 15.6828Z" fill="url(#paint2_linear_90_14512)"/>
<path d="M120.641 2.91528H121.232L124.222 11.745H117.477L120.641 2.91528ZM47.153 2.91528H47.744L50.7335 11.745H43.9895L47.153 2.91528ZM24.2444 2.63725H29.3894C31.3708 2.63725 32.5875 3.54102 32.5875 5.87018C32.5875 8.2688 31.3013 9.06833 29.3894 9.06833H28.9722L24.2444 2.91528V2.63725ZM13.3638 10.9107C13.3638 14.3522 11.7995 16.6466 8.49704 16.6466C5.15988 16.6466 3.63025 14.3522 3.63025 10.9107V8.12967C3.63025 4.51435 5.15988 2.39388 8.49704 2.39388C11.869 2.39388 13.3638 4.6187 13.3638 8.12967V10.9107ZM161.626 15.5341H161.417L153.562 0.82959H150.224V18.2108H152.38V3.47157H152.588L160.409 18.2108H163.781V0.82959H161.626V15.5341ZM137.361 2.56768V16.4728H132.426V18.2108H144.593V16.4728H139.725V2.56768H144.593V0.82959H132.426V2.56768H137.361ZM112.819 18.2108H115.148L116.818 13.5526H124.847L126.411 18.2108H128.984L122.727 0.82959H119.181L112.819 18.2108ZM96.8285 8.51204V0.82959H94.4647V18.2108H96.8285V10.3197H105.623V18.2108H107.987V0.82959H105.623V8.51204H96.8285ZM63.8733 2.56768V16.4728H58.9374V18.2108H71.1044V16.4728H66.2371V2.56768H71.1044V0.82959H58.9374V2.56768H63.8733ZM39.3314 18.2108H41.6605L43.3291 13.5526H51.3593L52.9236 18.2108H55.4963L49.2387 0.82959H45.693L39.3314 18.2108ZM35.1946 5.87018C35.1946 2.5329 33.0046 0.82959 29.4588 0.82959H21.3244V2.60246L26.2955 9.06833H21.3244V18.2108H23.6883V10.876H27.686L33.3175 18.2108H35.9941L30.2584 10.7369C33.2827 10.3197 35.1946 8.99877 35.1946 5.87018ZM82.9584 2.42867C84.9395 2.42867 86.0865 3.15864 87.0253 5.20966L89.146 4.37534C87.7908 1.73336 86.0517 0.62101 82.9584 0.62101C77.5002 0.62101 75.4144 4.16676 75.4144 9.48549C75.4144 14.8737 77.5351 18.4194 82.7153 18.4194C85.8783 18.4194 87.6512 17.1332 89.0413 14.6303L87.0253 13.8308C86.1563 15.8122 85.0093 16.6118 82.8188 16.6118C79.3778 16.6118 78.0912 14.3174 78.0912 10.9107V8.12967C78.0912 4.82728 79.2731 2.42867 82.9584 2.42867ZM8.60139 0.62101C3.7346 0.62101 0.918823 3.85395 0.918823 9.62451C0.918823 15.1865 3.5608 18.4194 8.42748 18.4194C13.2595 18.4194 16.0058 15.1865 16.0058 9.41593C16.0058 3.85395 13.4333 0.62101 8.60139 0.62101Z" fill="white"/>
<defs>
<linearGradient id="paint0_linear_90_14512" x1="170.081" y1="9.5" x2="223.081" y2="9.5" gradientUnits="userSpaceOnUse">
<stop stop-color="#8F63EC"/>
<stop offset="1" stop-color="#B28DFF"/>
</linearGradient>
<linearGradient id="paint1_linear_90_14512" x1="170.081" y1="9.5" x2="223.081" y2="9.5" gradientUnits="userSpaceOnUse">
<stop stop-color="#8F63EC"/>
<stop offset="1" stop-color="#B28DFF"/>
</linearGradient>
<linearGradient id="paint2_linear_90_14512" x1="170.081" y1="9.5" x2="223.081" y2="9.5" gradientUnits="userSpaceOnUse">
<stop stop-color="#8F63EC"/>
<stop offset="1" stop-color="#B28DFF"/>
</linearGradient>
</defs>
</svg>
