<svg width="40" height="40" viewBox="0 0 40 40" fill="none" xmlns="http://www.w3.org/2000/svg">
<g id="Arrow - Up Square">
<g id="Iconly/Bold/Arrow---Up-Square">
<g id="Arrow---Up-Square">
<path id="Vector" d="M27.233 3.33337C32.8813 3.33337 36.6663 7.30004 36.6663 13.2V26.8167C36.6663 32.7 32.8813 36.6667 27.233 36.6667H12.783C7.13301 36.6667 3.33301 32.7 3.33301 26.8167V13.2C3.33301 7.30004 7.13301 3.33337 12.783 3.33337H27.233ZM20.883 12.3C20.4163 11.8334 19.583 11.8334 19.1163 12.3L12.8663 18.5834C12.383 19.0667 12.383 19.8667 12.8663 20.35C13.3663 20.8334 14.1497 20.8334 14.6497 20.35L18.7497 16.2167V26.8C18.7497 27.5 19.3163 28.05 19.9997 28.05C20.6997 28.05 21.2497 27.5 21.2497 26.8V16.2167L25.3663 20.35C25.5997 20.5834 25.933 20.7167 26.2497 20.7167C26.5647 20.7167 26.883 20.5834 27.133 20.35C27.6163 19.8667 27.6163 19.0667 27.133 18.5834L20.883 12.3Z" fill="#613EC8"/>
</g>
</g>
</g>
</svg>
