<svg width="36" height="36" viewBox="0 0 36 36" fill="none" xmlns="http://www.w3.org/2000/svg">
<rect width="36" height="36" rx="4" fill="#EEFFF5"/>
<path fill-rule="evenodd" clip-rule="evenodd" d="M19.3054 20.3853L22.2815 24.838C22.4009 24.9391 22.5537 24.9963 22.7127 24.9997C22.7954 25.0014 22.8776 24.9874 22.9546 24.9585C23.0317 24.9297 23.102 24.8865 23.1617 24.8315C23.4906 24.3594 22.6874 21.3246 21.5882 18.1914L19.3054 20.3853Z" fill="#777E90"/>
<path fill-rule="evenodd" clip-rule="evenodd" d="M24.6732 12.3322C24.1794 11.8688 23.5503 11.917 23.1276 12.3108L19.678 15.5245C17.6176 14.9109 13.8898 13.7255 12.4829 13.7255C12.2867 13.7255 12.2005 13.7461 12.1709 13.7548C12.0639 13.8634 12.0035 14.0051 12.0013 14.1528C11.9991 14.3005 12.0553 14.4437 12.1591 14.555L17.3225 17.7181L14.759 20.1062C14.759 20.1062 12.7814 19.725 12.4922 19.6894C12.0889 19.6404 11.6239 19.9709 12.4905 20.3845C13.5026 20.8661 14.6879 21.4259 14.6879 21.4259C14.6879 21.4259 15.4176 22.7536 15.8632 23.4851C16.4305 24.3699 16.7636 23.9406 16.696 23.4851L16.4017 21.4963L18.8401 19.1304L21.232 16.9012L24.636 13.7295C25.0595 13.3357 25.1652 12.794 24.6732 12.3322Z" fill="#777E90"/>
</svg>
