<svg width="24" height="24" viewBox="0 0 24 24" fill="none" xmlns="http://www.w3.org/2000/svg">
<path d="M17.9841 14.5065C18.0067 14.8807 18.3974 15.1332 18.715 14.9339C20.6882 13.696 22 11.5012 22 9C22 5.13401 18.866 2 15 2C12.4988 2 10.304 3.3118 9.06607 5.28494C8.86681 5.60254 9.11926 5.99331 9.49353 6.01581C13.9694 6.28489 17.715 10.0345 17.9841 14.5065Z" fill="#7664E4"/>
<path d="M16 15C16 18.866 12.866 22 9 22C5.13401 22 2 18.866 2 15C2 11.134 5.13401 8 9 8C12.866 8 16 11.134 16 15Z" fill="#7664E4"/>
</svg>
