<svg width="224" height="18" viewBox="0 0 224 18" fill="none" xmlns="http://www.w3.org/2000/svg">
<path d="M170.081 17.7008L173.983 0.29917H181.202C183.078 0.29917 184.5 0.706372 185.466 1.52078C186.45 2.31856 186.943 3.41551 186.943 4.81164C186.943 5.72576 186.766 6.5651 186.413 7.32964C186.06 8.09418 185.559 8.75069 184.908 9.29917C184.277 9.84765 183.515 10.2798 182.623 10.5956C181.75 10.8947 180.774 11.0443 179.697 11.0443H175.098L173.593 17.7008H170.081ZM175.711 8.25208H180.17C180.876 8.25208 181.48 8.08587 181.982 7.75346C182.502 7.42105 182.837 6.91413 182.985 6.23269C183.078 5.80056 183.152 5.45983 183.208 5.21053C183.283 4.96122 183.32 4.76177 183.32 4.61219C183.32 4.18006 183.152 3.82272 182.818 3.54017C182.502 3.241 181.982 3.09141 181.257 3.09141H176.882L175.711 8.25208Z" fill="url(#paint0_linear_73_13227)"/>
<path d="M190.958 17.7008H187.446L191.348 0.29917H198.733C200.554 0.29917 201.939 0.698062 202.886 1.49585C203.834 2.27701 204.308 3.34072 204.308 4.68698C204.308 5.3518 204.196 5.99169 203.973 6.60665C203.769 7.22161 203.453 7.79501 203.025 8.32687C202.617 8.8421 202.115 9.29917 201.52 9.69806C200.926 10.0803 200.238 10.3712 199.458 10.5706L201.939 17.7008H198.176L196.03 10.9446H192.463L190.958 17.7008ZM197.535 8.25208C198.241 8.25208 198.845 8.08587 199.347 7.75346C199.848 7.42105 200.183 6.90582 200.35 6.20776C200.443 5.79224 200.517 5.45983 200.573 5.21053C200.647 4.96122 200.684 4.76177 200.684 4.61219C200.684 4.18006 200.517 3.82272 200.183 3.54017C199.867 3.241 199.347 3.09141 198.622 3.09141H194.218L193.076 8.25208H197.535Z" fill="url(#paint1_linear_73_13227)"/>
<path d="M213.104 18C212.156 18 211.264 17.867 210.428 17.6011C209.592 17.3186 208.849 16.8947 208.198 16.3296C207.567 15.7479 207.065 15.0166 206.693 14.1357C206.322 13.2548 206.136 12.2161 206.136 11.0194C206.136 9.54017 206.377 8.13574 206.861 6.8061C207.344 5.45984 208.022 4.28809 208.895 3.29086C209.787 2.27701 210.846 1.47922 212.072 0.897508C213.299 0.29917 214.655 0 216.141 0C217.089 0 217.981 0.141275 218.817 0.423824C219.653 0.706372 220.387 1.1385 221.019 1.72022C221.65 2.28532 222.152 3.00831 222.524 3.8892C222.895 4.75346 223.081 5.78393 223.081 6.98061C223.081 8.45983 222.84 9.87258 222.357 11.2188C221.873 12.5485 221.195 13.7202 220.322 14.7341C219.449 15.7313 218.399 16.5291 217.173 17.1274C215.946 17.7091 214.59 18 213.104 18ZM213.354 15.1828C214.766 15.1828 215.937 14.7673 216.866 13.9363C217.795 13.0886 218.427 11.9003 218.761 10.3712L219.347 7.77839C219.421 7.49585 219.467 7.23823 219.486 7.00554C219.504 6.75623 219.514 6.53186 219.514 6.33241C219.514 5.20222 219.198 4.33795 218.566 3.73961C217.953 3.12466 217.052 2.81718 215.863 2.81718C214.451 2.81718 213.28 3.241 212.351 4.08864C211.422 4.91967 210.79 6.09972 210.456 7.62881L209.871 10.2216C209.796 10.5042 209.75 10.7701 209.731 11.0194C209.713 11.2521 209.703 11.4681 209.703 11.6676C209.703 12.7978 210.01 13.6704 210.623 14.2853C211.255 14.8837 212.165 15.1828 213.354 15.1828Z" fill="url(#paint2_linear_73_13227)"/>
<path d="M120.641 2.41528H121.232L124.222 11.245H117.477L120.641 2.41528ZM47.1529 2.41528H47.7438L50.7334 11.245H43.9894L47.1529 2.41528ZM24.2443 2.13725H29.3893C31.3707 2.13725 32.5874 3.04102 32.5874 5.37018C32.5874 7.7688 31.3011 8.56833 29.3893 8.56833H28.9721L24.2443 2.41528V2.13725ZM13.3637 10.4107C13.3637 13.8522 11.7994 16.1466 8.49692 16.1466C5.15975 16.1466 3.63013 13.8522 3.63013 10.4107V7.62967C3.63013 4.01435 5.15975 1.89388 8.49692 1.89388C11.8689 1.89388 13.3637 4.1187 13.3637 7.62967V10.4107ZM161.625 15.0341H161.417L153.561 0.32959H150.224V17.7108H152.38V2.97157H152.588L160.409 17.7108H163.781V0.32959H161.625V15.0341ZM137.361 2.06768V15.9728H132.425V17.7108H144.592V15.9728H139.725V2.06768H144.592V0.32959H132.425V2.06768H137.361ZM112.819 17.7108H115.148L116.817 13.0526H124.847L126.411 17.7108H128.984L122.727 0.32959H119.181L112.819 17.7108ZM96.8284 8.01204V0.32959H94.4645V17.7108H96.8284V9.8197H105.623V17.7108H107.987V0.32959H105.623V8.01204H96.8284ZM63.8732 2.06768V15.9728H58.9373V17.7108H71.1042V15.9728H66.237V2.06768H71.1042V0.32959H58.9373V2.06768H63.8732ZM39.3313 17.7108H41.6604L43.329 13.0526H51.3592L52.9235 17.7108H55.4962L49.2386 0.32959H45.6928L39.3313 17.7108ZM35.1945 5.37018C35.1945 2.0329 33.0045 0.32959 29.4587 0.32959H21.3243V2.10246L26.2953 8.56833H21.3243V17.7108H23.6881V10.376H27.6858L33.3174 17.7108H35.994L30.2582 10.2369C33.2826 9.8197 35.1945 8.49877 35.1945 5.37018ZM82.9583 1.92867C84.9394 1.92867 86.0864 2.65864 87.0252 4.70966L89.1459 3.87534C87.7907 1.23336 86.0515 0.12101 82.9583 0.12101C77.5001 0.12101 75.4143 3.66676 75.4143 8.98549C75.4143 14.3737 77.535 17.9194 82.7152 17.9194C85.8782 17.9194 87.6511 16.6332 89.0412 14.1303L87.0252 13.3308C86.1562 15.3122 85.0092 16.1118 82.8187 16.1118C79.3777 16.1118 78.091 13.8174 78.091 10.4107V7.62967C78.091 4.32728 79.273 1.92867 82.9583 1.92867ZM8.60127 0.12101C3.73447 0.12101 0.918701 3.35395 0.918701 9.12451C0.918701 14.6865 3.56068 17.9194 8.42736 17.9194C13.2594 17.9194 16.0057 14.6865 16.0057 8.91593C16.0057 3.35395 13.4332 0.12101 8.60127 0.12101Z" fill="white"/>
<defs>
<linearGradient id="paint0_linear_73_13227" x1="170.081" y1="9" x2="223.081" y2="9" gradientUnits="userSpaceOnUse">
<stop stop-color="#8F63EC"/>
<stop offset="1" stop-color="#B28DFF"/>
</linearGradient>
<linearGradient id="paint1_linear_73_13227" x1="170.081" y1="9" x2="223.081" y2="9" gradientUnits="userSpaceOnUse">
<stop stop-color="#8F63EC"/>
<stop offset="1" stop-color="#B28DFF"/>
</linearGradient>
<linearGradient id="paint2_linear_73_13227" x1="170.081" y1="9" x2="223.081" y2="9" gradientUnits="userSpaceOnUse">
<stop stop-color="#8F63EC"/>
<stop offset="1" stop-color="#B28DFF"/>
</linearGradient>
</defs>
</svg>
