<svg width="36" height="36" viewBox="0 0 36 36" fill="none" xmlns="http://www.w3.org/2000/svg">
<rect width="36" height="36" rx="4" fill="#F8EFFF"/>
<path d="M14.9707 16.3334L17.3332 14.6667H22.1665V16.3334H17.8799L15.4999 18.0001H9.66653V16.3334H14.9707ZM15.734 20.5501L18.1715 19.6626L18.7415 21.2292L16.304 22.1159C16.4188 23.0307 16.1925 23.9556 15.6685 24.7142C15.1444 25.4727 14.3593 26.0116 13.4631 26.2279C12.5669 26.4443 11.6225 26.3229 10.8101 25.887C9.99772 25.451 9.3744 24.7311 9.05918 23.8648C8.74397 22.9984 8.75896 22.0462 9.10128 21.1902C9.4436 20.3342 10.0893 19.6343 10.915 19.2241C11.7406 18.814 12.6885 18.7224 13.5774 18.9668C14.4664 19.2113 15.2341 19.7746 15.734 20.5492V20.5501ZM12.5832 24.6667C13.1357 24.6667 13.6656 24.4472 14.0563 24.0565C14.447 23.6658 14.6665 23.1359 14.6665 22.5834C14.6665 22.0309 14.447 21.501 14.0563 21.1103C13.6656 20.7196 13.1357 20.5001 12.5832 20.5001C12.0307 20.5001 11.5008 20.7196 11.1101 21.1103C10.7194 21.501 10.4999 22.0309 10.4999 22.5834C10.4999 23.1359 10.7194 23.6658 11.1101 24.0565C11.5008 24.4472 12.0307 24.6667 12.5832 24.6667ZM23.4165 26.3334C22.9241 26.3334 22.4364 26.2364 21.9815 26.0479C21.5265 25.8595 21.1131 25.5833 20.7649 25.235C20.4167 24.8868 20.1404 24.4734 19.952 24.0185C19.7635 23.5635 19.6665 23.0759 19.6665 22.5834C19.6665 22.0909 19.7635 21.6033 19.952 21.1483C20.1404 20.6934 20.4167 20.28 20.7649 19.9317C21.1131 19.5835 21.5265 19.3073 21.9815 19.1188C22.4364 18.9304 22.9241 18.8334 23.4165 18.8334C24.4111 18.8334 25.3649 19.2285 26.0682 19.9317C26.7714 20.635 27.1665 21.5888 27.1665 22.5834C27.1665 23.578 26.7714 24.5318 26.0682 25.235C25.3649 25.9383 24.4111 26.3334 23.4165 26.3334ZM23.4165 24.6667C23.9691 24.6667 24.499 24.4472 24.8897 24.0565C25.2804 23.6658 25.4999 23.1359 25.4999 22.5834C25.4999 22.0309 25.2804 21.501 24.8897 21.1103C24.499 20.7196 23.9691 20.5001 23.4165 20.5001C22.864 20.5001 22.3341 20.7196 21.9434 21.1103C21.5527 21.501 21.3332 22.0309 21.3332 22.5834C21.3332 23.1359 21.5527 23.6658 21.9434 24.0565C22.3341 24.4472 22.864 24.6667 23.4165 24.6667ZM11.3332 17.1667H16.3332L18.4999 15.7226L18.7332 14.8509L20.3432 15.2826L18.7415 21.2251L17.2232 20.4851L17.3215 20.1184L15.4999 21.3334L14.6665 19.6667H11.3332V17.1667ZM21.4099 13.0001H24.6665V15.5001H22.3199L23.9199 19.8967L22.3532 20.4667L20.5465 15.5001H20.4999V15.3734L19.3332 12.1667H17.1665V10.5001H20.4999L21.4099 13.0001Z" fill="#777E90"/>
</svg>
