<svg width="60" height="60" viewBox="0 0 60 60" fill="none" xmlns="http://www.w3.org/2000/svg">
<rect width="60" height="60" rx="15" fill="#777E90" fill-opacity="0.08"/>
<path fill-rule="evenodd" clip-rule="evenodd" d="M17.9688 23.125C17.0195 23.125 16.25 23.8945 16.25 24.8437V42.0312C16.25 44.879 18.5585 47.1875 21.4063 47.1875H38.5938C41.4415 47.1875 43.75 44.879 43.75 42.0312V24.8437C43.75 23.8945 42.9805 23.125 42.0313 23.125H17.9688ZM24.8438 28.2812C25.793 28.2812 26.5625 29.0508 26.5625 30V40.3125C26.5625 41.2617 25.793 42.0312 24.8438 42.0312C23.8945 42.0312 23.125 41.2617 23.125 40.3125V30C23.125 29.0508 23.8945 28.2812 24.8438 28.2812ZM36.875 30C36.875 29.0508 36.1055 28.2812 35.1563 28.2812C34.207 28.2812 33.4375 29.0508 33.4375 30V40.3125C33.4375 41.2617 34.207 42.0312 35.1563 42.0312C36.1055 42.0312 36.875 41.2617 36.875 40.3125V30Z" fill="#777E90"/>
<path d="M16.25 19.6875C15.3008 19.6875 14.5312 18.918 14.5312 17.9687C14.5312 17.0195 15.3008 16.25 16.25 16.25H21.6997C22.4075 14.2473 24.3174 12.8125 26.5625 12.8125H33.4375C35.6826 12.8125 37.5925 14.2473 38.3004 16.25H43.75C44.6992 16.25 45.4688 17.0195 45.4688 17.9687C45.4688 18.918 44.6992 19.6875 43.75 19.6875H16.25Z" fill="#777E90"/>
</svg>
