<svg width="144" height="144" viewBox="0 0 144 144" fill="none" xmlns="http://www.w3.org/2000/svg">
<g id="Frame" clip-path="url(#clip0_249_560)">
<path id="Vector" d="M72 144C111.764 144 144 111.764 144 72C144 32.2355 111.764 0 72 0C32.2355 0 0 32.2355 0 72C0 111.764 32.2355 144 72 144Z" fill="black"/>
<path id="Vector_2" d="M72.0002 136.133C107.42 136.133 136.133 107.42 136.133 72C136.133 36.5803 107.42 7.86694 72.0002 7.86694C36.5805 7.86694 7.86719 36.5803 7.86719 72C7.86719 107.42 36.5805 136.133 72.0002 136.133Z" fill="white"/>
<path id="Vector_3" d="M15.0499 68.7506H0V83.1164H15.0499V68.7506Z" fill="white"/>
<path id="Vector_4" d="M144 64.6461H128.95V79.0119H144V64.6461Z" fill="white"/>
<path id="Vector_5" d="M79.6959 0H64.646V14.3658H79.6959V0Z" fill="white"/>
<path id="Vector_6" d="M79.6959 129.634H64.646V144H79.6959V129.634Z" fill="white"/>
<path id="Vector_7" d="M64.1514 88.2471L55.1967 59.1803L54.0953 55.6367H58.7881L67.9344 85.8528L65.8274 85.3739L73.7764 55.6367H78.6129L69.754 88.2471H64.1514ZM43.1294 88.2471L34.2705 55.6367H39.107L47.0561 85.3739L44.9491 85.8528L54.0953 55.6367H58.7881L57.6868 59.1803L48.7321 88.2471H43.1294Z" fill="black"/>
<path id="Vector_8" d="M79.4616 55L88.4162 84.0668L89.5176 87.6104H84.8248L75.6786 57.3943L77.7856 57.8732L69.8365 87.6104H65L73.8589 55H79.4616ZM100.484 55L109.342 87.6104H104.506L96.5569 57.8732L98.6638 57.3943L89.5176 87.6104H84.8248L85.9262 84.0668L94.8809 55H100.484Z" fill="black"/>
</g>
<defs>
<clipPath id="clip0_249_560">
<rect width="144" height="144" fill="white"/>
</clipPath>
</defs>
</svg>
