<svg width="20" height="20" viewBox="0 0 20 20" fill="none" xmlns="http://www.w3.org/2000/svg">
<path d="M12.5806 4.92034C12.0793 4.40977 11.4818 4.00357 10.8227 3.7252C10.1635 3.44684 9.45576 3.30182 8.74025 3.29854C8.02475 3.29525 7.31568 3.43375 6.654 3.70605C5.99232 3.97835 5.39115 4.37904 4.8852 4.88498C4.37926 5.39093 3.97856 5.9921 3.70627 6.65378C3.43397 7.31546 3.29547 8.02453 3.29876 8.74003C3.30204 9.45554 3.44706 10.1633 3.72542 10.8225C4.00379 11.4816 4.40999 12.0791 4.92056 12.5803C5.93952 13.5807 7.3123 14.1383 8.74025 14.1318C10.1682 14.1252 11.5358 13.555 12.5455 12.5453C13.5553 11.5356 14.1254 10.168 14.132 8.74003C14.1385 7.31208 13.581 5.9393 12.5806 4.92034ZM3.74223 3.74201C5.01958 2.46498 6.73652 1.72416 8.54196 1.67104C10.3474 1.61792 12.1049 2.25651 13.4552 3.45623C14.8054 4.65596 15.6463 6.32617 15.8059 8.12532C15.9655 9.92448 15.4318 11.7166 14.3139 13.1353L18.7681 17.5895L17.5897 18.7678L13.1356 14.3137C11.7164 15.4275 9.92577 15.9579 8.12895 15.7967C6.33212 15.6355 4.66448 14.7949 3.46621 13.4463C2.26794 12.0977 1.62931 10.3427 1.6806 8.53942C1.73189 6.73612 2.46924 5.02031 3.74223 3.74201Z" fill="#242325"/>
</svg>
