<svg width="32" height="32" viewBox="0 0 32 32" fill="none" xmlns="http://www.w3.org/2000/svg">
<path d="M0 16C0 7.16344 7.16344 0 16 0C24.8366 0 32 7.16344 32 16C32 24.8366 24.8366 32 16 32C7.16344 32 0 24.8366 0 16Z" fill="#EBEDF2"/>
<path d="M22.3751 11.3763C21.6454 10.3687 20.6871 9.54864 19.5789 8.98344C18.4706 8.41825 17.2441 8.12404 16.0001 8.125C11.9298 8.125 8.58259 11.2113 8.16784 15.172L8.08984 15.9175L9.58234 16.0743L9.65959 15.328C9.79948 14.0081 10.3478 12.7647 11.2281 11.7713C12.1085 10.7779 13.2769 10.0841 14.5704 9.78648C15.864 9.4889 17.2181 9.60245 18.444 10.1113C19.6699 10.6201 20.7065 11.4989 21.4091 12.625H20.1251V14.125H23.8751V8.875H22.3751V11.3763ZM15.2501 11.5V12.25C14.6534 12.25 14.0811 12.4871 13.6591 12.909C13.2371 13.331 13.0001 13.9033 13.0001 14.5C13.0001 15.0967 13.2371 15.669 13.6591 16.091C14.0811 16.5129 14.6534 16.75 15.2501 16.75H16.7501C16.949 16.75 17.1398 16.829 17.2804 16.9697C17.4211 17.1103 17.5001 17.3011 17.5001 17.5C17.5001 17.6989 17.4211 17.8897 17.2804 18.0303C17.1398 18.171 16.949 18.25 16.7501 18.25H13.3751V19.75H15.2501V20.5H16.7501V19.75C17.0456 19.75 17.3381 19.6918 17.6111 19.5787C17.8841 19.4657 18.1322 19.2999 18.3411 19.091C18.55 18.8821 18.7157 18.634 18.8288 18.361C18.9419 18.0881 19.0001 17.7955 19.0001 17.5C19.0001 17.2045 18.9419 16.9119 18.8288 16.639C18.7157 16.366 18.55 16.1179 18.3411 15.909C18.1322 15.7001 17.8841 15.5343 17.6111 15.4213C17.3381 15.3082 17.0456 15.25 16.7501 15.25H15.2501C15.0512 15.25 14.8604 15.171 14.7198 15.0303C14.5791 14.8897 14.5001 14.6989 14.5001 14.5C14.5001 14.3011 14.5791 14.1103 14.7198 13.9697C14.8604 13.829 15.0512 13.75 15.2501 13.75H18.6251V12.25H16.7501V11.5H15.2501ZM22.4178 15.9258L22.3398 16.672C22.2 17.9919 21.6516 19.2353 20.7713 20.2287C19.891 21.2221 18.7226 21.9159 17.429 22.2135C16.1355 22.5111 14.7813 22.3976 13.5554 21.8887C12.3295 21.3799 11.2929 20.5011 10.5903 19.375H11.8751V17.875H8.12509V23.125H9.62509V20.6238C10.3548 21.6313 11.3131 22.4514 12.4213 23.0166C13.5296 23.5818 14.7561 23.876 16.0001 23.875C20.0696 23.875 23.4176 20.7888 23.8316 16.828L23.9096 16.0825L22.4178 15.9258Z" fill="#242325"/>
</svg>
