<svg width="20" height="20" viewBox="0 0 20 20" fill="none" xmlns="http://www.w3.org/2000/svg">
<g id="tdesign:link-unlink">
<path id="Vector" d="M3.58721 2.40854L6.53305 5.35521L5.35471 6.53354L2.40888 3.58687L3.58721 2.40854ZM8.54471 0.984375V4.73438H6.87805V0.984375H8.54471ZM1.12305 6.74188H4.87305V8.40854H1.12305V6.74188ZM12.358 4.69687L9.82138 7.23354L8.64305 6.05437L11.1797 3.51771C11.883 2.81444 12.8368 2.41935 13.8314 2.41935C14.8259 2.41935 15.7798 2.81444 16.483 3.51771C17.1863 4.22097 17.5814 5.17481 17.5814 6.16937C17.5814 7.16394 17.1863 8.11778 16.483 8.82104L13.9464 11.3577L12.7672 10.1794L15.3039 7.64271C15.5029 7.45053 15.6616 7.22064 15.7708 6.96647C15.8799 6.71229 15.9374 6.43892 15.9398 6.16229C15.9422 5.88567 15.8895 5.61134 15.7848 5.3553C15.68 5.09927 15.5253 4.86666 15.3297 4.67105C15.1341 4.47544 14.9015 4.32075 14.6455 4.216C14.3894 4.11124 14.1151 4.05853 13.8385 4.06094C13.5618 4.06334 13.2885 4.12081 13.0343 4.23C12.7801 4.33918 12.5502 4.4979 12.358 4.69687ZM4.69805 12.3569C4.50317 12.55 4.34836 12.7797 4.24251 13.0328C4.13665 13.2859 4.08183 13.5574 4.08119 13.8318C4.08055 14.1062 4.1341 14.3779 4.23878 14.6315C4.34346 14.8851 4.4972 15.1156 4.69117 15.3096C4.88514 15.5036 5.11552 15.6574 5.36909 15.7622C5.62266 15.8669 5.89442 15.9205 6.16878 15.92C6.44313 15.9194 6.71467 15.8647 6.96781 15.7589C7.22095 15.6531 7.45071 15.4984 7.64388 15.3035L10.1805 12.7669L11.3589 13.9452L8.82221 16.4819C8.11895 17.1851 7.16511 17.5802 6.17055 17.5802C5.17598 17.5802 4.22215 17.1851 3.51888 16.4819C2.81561 15.7786 2.42052 14.8248 2.42052 13.8302C2.42052 12.8356 2.81561 11.8818 3.51888 11.1785L6.05555 8.64187L7.23471 9.82021L4.69805 12.3569ZM15.263 11.456H19.013V13.1227H15.263V11.456ZM13.258 15.1277V18.8777H11.5914V15.1277H13.258ZM14.6447 13.4669L17.5914 16.4135L16.4122 17.5919L13.4664 14.6452L14.6447 13.4669Z" fill="#242325"/>
</g>
</svg>
