<svg width="21" height="20" viewBox="0 0 21 20" fill="none" xmlns="http://www.w3.org/2000/svg">
<path d="M5.08268 6.2487C5.08268 4.81211 5.65337 3.43436 6.66919 2.41854C7.68501 1.40271 9.06276 0.832031 10.4993 0.832031C11.9359 0.832031 13.3137 1.40271 14.3295 2.41854C15.3453 3.43436 15.916 4.81211 15.916 6.2487V7.4987H17.5827V18.332H3.41602V7.4987H5.08268V6.2487ZM6.74935 7.4987H14.2493V6.2487C14.2493 5.25414 13.8543 4.30031 13.151 3.59705C12.4477 2.89379 11.4939 2.4987 10.4993 2.4987C9.50479 2.4987 8.55096 2.89379 7.8477 3.59705C7.14444 4.30031 6.74935 5.25414 6.74935 6.2487V7.4987ZM5.08268 9.16536V16.6654H15.916V9.16536H5.08268ZM7.99935 12.082H12.9993V13.7487H7.99935V12.082Z" fill="#242325"/>
</svg>
