<svg width="21" height="20" viewBox="0 0 21 20" fill="none" xmlns="http://www.w3.org/2000/svg">
<path d="M10.5007 2.4987C9.51574 2.4987 8.54047 2.69269 7.63053 3.0696C6.72058 3.44651 5.89379 3.99896 5.19735 4.6954C4.50091 5.39184 3.94846 6.21863 3.57155 7.12857C3.19464 8.03851 3.00065 9.01378 3.00065 9.9987C3.00065 10.9836 3.19464 11.9589 3.57155 12.8688C3.94846 13.7788 4.50091 14.6056 5.19735 15.302C5.89379 15.9984 6.72058 16.5509 7.63053 16.9278C8.54047 17.3047 9.51574 17.4987 10.5007 17.4987C12.4898 17.4987 14.3974 16.7085 15.804 15.302C17.2105 13.8955 18.0007 11.9878 18.0007 9.9987C18.0007 8.00957 17.2105 6.10192 15.804 4.6954C14.3974 3.28887 12.4898 2.4987 10.5007 2.4987ZM1.33398 9.9987C1.33398 4.9362 5.43815 0.832031 10.5007 0.832031C15.5632 0.832031 19.6673 4.9362 19.6673 9.9987C19.6673 15.0612 15.5632 19.1654 10.5007 19.1654C5.43815 19.1654 1.33398 15.0612 1.33398 9.9987ZM11.334 5.41536V9.16537H15.084V10.832H11.334V14.582H9.66732V10.832H5.91732V9.16537H9.66732V5.41536H11.334Z" fill="#242325"/>
</svg>
