<svg width="21" height="20" viewBox="0 0 21 20" fill="none" xmlns="http://www.w3.org/2000/svg">
<path d="M3.04648 9.16517C3.2091 7.71575 3.79039 6.34508 4.71933 5.22064C5.64827 4.09621 6.88462 3.26671 8.27732 2.83351C7.14406 4.7618 6.4862 6.9322 6.35815 9.16517H3.04648ZM9.66065 0.870172C4.99232 1.29351 1.33398 5.21934 1.33398 9.99851C1.33398 14.7777 4.99232 18.7027 9.66065 19.1268L9.66732 19.1352L10.0215 19.1527C10.1811 19.1605 10.3409 19.1647 10.5007 19.1652C10.6605 19.1651 10.8202 19.1609 10.9798 19.1527L11.334 19.136L11.3407 19.1277C16.009 18.7018 19.6673 14.7777 19.6673 9.99851C19.6673 5.21934 16.009 1.29351 11.3407 0.870172L11.334 0.861838L10.979 0.844338C10.6603 0.827929 10.341 0.827929 10.0223 0.844338L9.66732 0.861005L9.66065 0.869338V0.870172ZM10.5023 2.49851C11.9574 4.4328 12.8161 6.7498 12.9732 9.16517H8.02815C8.18543 6.74971 9.04446 4.43271 10.4998 2.49851H10.5007H10.5023ZM6.35732 10.8318C6.49065 13.1318 7.17399 15.286 8.27648 17.1635C6.88379 16.7303 5.64743 15.9008 4.71849 14.7764C3.78956 13.6519 3.20827 12.2813 3.04565 10.8318H6.35732ZM10.499 17.4985C9.04363 15.5643 8.1846 13.2473 8.02732 10.8318H12.9723C12.815 13.2473 11.956 15.5643 10.5007 17.4985H10.499ZM12.724 17.1635C13.8569 15.2351 14.5145 13.0647 14.6423 10.8318H17.954C17.7914 12.2813 17.2101 13.6519 16.2811 14.7764C15.3522 15.9008 14.1158 16.7303 12.7232 17.1635H12.724ZM14.6423 9.16517C14.509 6.86517 13.8257 4.71101 12.7232 2.83351C14.116 3.26657 15.3525 4.09601 16.2816 5.22046C17.2107 6.3449 17.7921 7.71565 17.9548 9.16517H14.6432H14.6423Z" fill="#242325"/>
</svg>
