<svg width="22" height="22" viewBox="0 0 22 22" fill="none" xmlns="http://www.w3.org/2000/svg">
<path d="M5.33325 15.5C5.05992 15.5 4.83325 15.2733 4.83325 15V7.66666C4.83325 4.72666 5.72659 3.83333 8.66659 3.83333H13.3333C16.2733 3.83333 17.1666 4.72666 17.1666 7.66666V14.3333C17.1666 14.44 17.1666 14.54 17.1599 14.6467C17.1399 14.92 16.8933 15.1333 16.6266 15.1133C16.3533 15.0933 16.1399 14.8533 16.1599 14.58C16.1666 14.5 16.1666 14.4133 16.1666 14.3333V7.66666C16.1666 5.28666 15.7199 4.83333 13.3333 4.83333H8.66659C6.27992 4.83333 5.83325 5.28666 5.83325 7.66666V15C5.83325 15.2733 5.60659 15.5 5.33325 15.5Z" fill="url(#paint0_linear_119_2102)"/>
<path d="M14.3333 18.1667H7.66659C6.10659 18.1667 4.83325 16.8933 4.83325 15.3333V14.9C4.83325 13.5733 5.91325 12.5 7.23325 12.5H16.6666C16.9399 12.5 17.1666 12.7267 17.1666 13V15.3333C17.1666 16.8933 15.8933 18.1667 14.3333 18.1667ZM7.23325 13.5C6.45992 13.5 5.83325 14.1267 5.83325 14.9V15.3333C5.83325 16.3467 6.65325 17.1667 7.66659 17.1667H14.3333C15.3466 17.1667 16.1666 16.3467 16.1666 15.3333V13.5H7.23325Z" fill="url(#paint1_linear_119_2102)"/>
<path d="M13.6666 8.16667H8.33325C8.05992 8.16667 7.83325 7.94001 7.83325 7.66667C7.83325 7.39334 8.05992 7.16667 8.33325 7.16667H13.6666C13.9399 7.16667 14.1666 7.39334 14.1666 7.66667C14.1666 7.94001 13.9399 8.16667 13.6666 8.16667Z" fill="url(#paint2_linear_119_2102)"/>
<path d="M11.6666 10.5H8.33325C8.05992 10.5 7.83325 10.2733 7.83325 10C7.83325 9.72667 8.05992 9.5 8.33325 9.5H11.6666C11.9399 9.5 12.1666 9.72667 12.1666 10C12.1666 10.2733 11.9399 10.5 11.6666 10.5Z" fill="url(#paint3_linear_119_2102)"/>
<path d="M4 1H18V-1H4V1ZM21 4V18H23V4H21ZM18 21H4V23H18V21ZM1 18V4H-1V18H1ZM4 21C2.34315 21 1 19.6569 1 18H-1C-1 20.7614 1.23858 23 4 23V21ZM21 18C21 19.6569 19.6569 21 18 21V23C20.7614 23 23 20.7614 23 18H21ZM18 1C19.6569 1 21 2.34315 21 4H23C23 1.23858 20.7614 -1 18 -1V1ZM4 -1C1.23858 -1 -1 1.23858 -1 4H1C1 2.34315 2.34315 1 4 1V-1Z" fill="url(#paint4_linear_119_2102)"/>
<defs>
<linearGradient id="paint0_linear_119_2102" x1="4.83325" y1="9.66666" x2="17.1666" y2="9.66666" gradientUnits="userSpaceOnUse">
<stop stop-color="#8F63EC"/>
<stop offset="1" stop-color="#B28DFF"/>
</linearGradient>
<linearGradient id="paint1_linear_119_2102" x1="4.83325" y1="15.3333" x2="17.1666" y2="15.3333" gradientUnits="userSpaceOnUse">
<stop stop-color="#8F63EC"/>
<stop offset="1" stop-color="#B28DFF"/>
</linearGradient>
<linearGradient id="paint2_linear_119_2102" x1="7.83325" y1="7.66667" x2="14.1666" y2="7.66667" gradientUnits="userSpaceOnUse">
<stop stop-color="#8F63EC"/>
<stop offset="1" stop-color="#B28DFF"/>
</linearGradient>
<linearGradient id="paint3_linear_119_2102" x1="7.83325" y1="10" x2="12.1666" y2="10" gradientUnits="userSpaceOnUse">
<stop stop-color="#8F63EC"/>
<stop offset="1" stop-color="#B28DFF"/>
</linearGradient>
<linearGradient id="paint4_linear_119_2102" x1="0" y1="11" x2="22" y2="11" gradientUnits="userSpaceOnUse">
<stop stop-color="#8F63EC"/>
<stop offset="1" stop-color="#B28DFF"/>
</linearGradient>
</defs>
</svg>
