<svg width="100" height="101" viewBox="0 0 100 101" fill="none" xmlns="http://www.w3.org/2000/svg">
<path d="M41.4143 43.2046L44.5831 52.5636H37.4351L40.7881 43.2046H41.4143ZM58.5111 57.5746H53.2788V59.4169H66.1748V57.5746H61.0165V42.8361H66.1748V40.9939H53.2788V42.8361H58.5111V57.5746ZM34.9664 59.4169L36.7351 54.4796H45.2463L46.9046 59.4169H49.6311L42.9988 40.9939H39.2406L32.4979 59.4169H34.9664ZM76.4548 76.9556H23.5442V24.0449H76.4548V76.9556Z" fill="white"/>
<path d="M55.1584 100.5C78.7766 98.0683 97.5681 79.2768 100 55.6586H93.7731C91.5624 76.1448 76.0501 92.4675 55.1584 94.789V100.5Z" fill="white"/>
<path d="M-0.00012207 55.6586C2.43171 79.2768 21.2231 98.0683 44.8413 100.5V94.789C23.9497 92.4675 8.47443 76.1081 6.22684 55.6586H-0.00012207Z" fill="white"/>
<path d="M100 45.3414C97.5681 21.7232 78.7766 2.93183 55.1584 0.5V6.21111C76.0501 8.5324 91.5254 24.892 93.7731 45.3414H100Z" fill="white"/>
<path d="M44.8413 0.5C21.2231 2.93183 2.43171 21.7232 -0.00012207 45.3414H6.22684C8.43758 24.8551 23.9497 8.5324 44.8413 6.21111V0.5Z" fill="white"/>
</svg>
