<svg width="18" height="18" viewBox="0 0 18 18" fill="none" xmlns="http://www.w3.org/2000/svg">
<path d="M15.3751 4.37625C14.6454 3.3687 13.6871 2.54864 12.5789 1.98344C11.4706 1.41825 10.2441 1.12404 9.00009 1.125C4.92984 1.125 1.58259 4.21125 1.16784 8.172L1.08984 8.9175L2.58234 9.07425L2.65959 8.328C2.79948 7.00807 3.34782 5.7647 4.22815 4.77132C5.10847 3.77793 6.27688 3.08406 7.57042 2.78648C8.86395 2.4889 10.2181 2.60245 11.444 3.11129C12.6699 3.62013 13.7065 4.49889 14.4091 5.625H13.1251V7.125H16.8751V1.875H15.3751V4.37625ZM8.25009 4.5V5.25C7.65336 5.25 7.08106 5.48706 6.6591 5.90901C6.23715 6.33097 6.00009 6.90327 6.00009 7.5C6.00009 8.09674 6.23715 8.66904 6.6591 9.09099C7.08106 9.51295 7.65336 9.75 8.25009 9.75H9.75009C9.94901 9.75 10.1398 9.82902 10.2804 9.96967C10.4211 10.1103 10.5001 10.3011 10.5001 10.5C10.5001 10.6989 10.4211 10.8897 10.2804 11.0303C10.1398 11.171 9.94901 11.25 9.75009 11.25H6.37509V12.75H8.25009V13.5H9.75009V12.75C10.0456 12.75 10.3381 12.6918 10.6111 12.5787C10.8841 12.4657 11.1322 12.2999 11.3411 12.091C11.55 11.8821 11.7157 11.634 11.8288 11.361C11.9419 11.0881 12.0001 10.7955 12.0001 10.5C12.0001 10.2045 11.9419 9.91195 11.8288 9.63896C11.7157 9.36598 11.55 9.11794 11.3411 8.90901C11.1322 8.70008 10.8841 8.53435 10.6111 8.42127C10.3381 8.3082 10.0456 8.25 9.75009 8.25H8.25009C8.05118 8.25 7.86042 8.17098 7.71976 8.03033C7.57911 7.88968 7.50009 7.69891 7.50009 7.5C7.50009 7.30109 7.57911 7.11032 7.71976 6.96967C7.86042 6.82902 8.05118 6.75 8.25009 6.75H11.6251V5.25H9.75009V4.5H8.25009ZM15.4178 8.92575L15.3398 9.672C15.2 10.9919 14.6516 12.2353 13.7713 13.2287C12.891 14.2221 11.7226 14.9159 10.429 15.2135C9.13548 15.5111 7.78132 15.3976 6.55541 14.8887C5.32949 14.3799 4.29295 13.5011 3.59034 12.375H4.87509V10.875H1.12509V16.125H2.62509V13.6238C3.35478 14.6313 4.3131 15.4514 5.42133 16.0166C6.52956 16.5818 7.75606 16.876 9.00009 16.875C13.0696 16.875 16.4176 13.7888 16.8316 9.828L16.9096 9.0825L15.4178 8.92575Z" fill="#242325"/>
</svg>
