<svg width="16" height="16" viewBox="0 0 16 16" fill="none" xmlns="http://www.w3.org/2000/svg">
<g clip-path="url(#clip0_6709_95575)">
<path d="M7.99935 2.0013C7.21142 2.0013 6.4312 2.1565 5.70325 2.45802C4.9753 2.75955 4.31386 3.20151 3.75671 3.75866C3.19956 4.31581 2.7576 4.97725 2.45607 5.7052C2.15454 6.43316 1.99935 7.21337 1.99935 8.0013C1.99935 8.78923 2.15454 9.56945 2.45607 10.2974C2.7576 11.0254 3.19956 11.6868 3.75671 12.2439C4.31386 12.8011 4.9753 13.2431 5.70325 13.5446C6.4312 13.8461 7.21142 14.0013 7.99935 14.0013C9.59065 14.0013 11.1168 13.3692 12.242 12.2439C13.3672 11.1187 13.9993 9.5926 13.9993 8.0013C13.9993 6.41 13.3672 4.88388 12.242 3.75866C11.1168 2.63344 9.59065 2.0013 7.99935 2.0013ZM0.666016 8.0013C0.666016 3.9513 3.94935 0.667969 7.99935 0.667969C12.0493 0.667969 15.3327 3.9513 15.3327 8.0013C15.3327 12.0513 12.0493 15.3346 7.99935 15.3346C3.94935 15.3346 0.666016 12.0513 0.666016 8.0013ZM8.66602 4.33464V9.33464H7.33268V4.33464H8.66602ZM7.33268 10.3346H8.66868V11.6706H7.33268V10.3346Z" fill="#F29900"/>
</g>
<defs>
<clipPath id="clip0_6709_95575">
<rect width="16" height="16" fill="white"/>
</clipPath>
</defs>
</svg>
