<svg width="21" height="20" viewBox="0 0 21 20" fill="none" xmlns="http://www.w3.org/2000/svg">
<g clip-path="url(#clip0_8156_103208)">
<path d="M9.91098 3.51915C10.8931 2.53706 12.0716 2.04601 13.4465 2.04602C14.8214 2.04601 16 2.53706 16.982 3.51915C17.9641 4.50125 18.4552 5.67976 18.4552 7.05469C18.4552 8.42962 17.9641 9.60813 16.982 10.5902C16.3339 11.2384 15.5777 11.6705 14.7134 11.8866C13.8492 12.1026 12.9947 12.1026 12.1501 11.8866L5.78619 18.2505L2.25065 14.715L3.42916 13.5365L1.6614 11.7687L5.19693 8.2332L6.9647 10.001L8.61461 8.35105C8.39855 7.50645 8.39855 6.65203 8.61461 5.78779C8.83068 4.92355 9.2628 4.16734 9.91098 3.51915ZM11.0895 4.69767C10.4413 5.34585 10.1196 6.06513 10.1243 6.85552C10.129 7.64591 10.2838 8.27209 10.5886 8.73407L6.9647 12.358L5.19693 10.5902L4.01842 11.7687L5.78619 13.5365L4.60768 14.715L5.78619 15.8935L11.7671 9.91258C12.2287 10.217 12.8547 10.3716 13.6451 10.3763C14.4355 10.381 15.155 10.0595 15.8035 9.41171C16.4517 8.76353 16.7758 7.97785 16.7758 7.05469C16.7758 6.13152 16.4517 5.34585 15.8035 4.69766C15.1554 4.04948 14.3697 3.72539 13.4465 3.72539C12.5233 3.72539 11.7377 4.04948 11.0895 4.69767ZM12.268 5.87618C11.9439 6.20027 11.7817 6.5931 11.7813 7.05469C11.7809 7.51627 11.9431 7.90911 12.268 8.2332C12.5921 8.55729 12.9847 8.71933 13.4459 8.71933C13.9071 8.71933 14.3001 8.55729 14.625 8.2332C14.9491 7.90911 15.111 7.51627 15.1106 7.05469C15.1102 6.5931 14.9483 6.20027 14.625 5.87618C14.3009 5.55209 13.9079 5.39004 13.4459 5.39004C12.9839 5.39004 12.5913 5.55209 12.268 5.87618Z" fill="#7C00DB"/>
</g>
<defs>
<clipPath id="clip0_8156_103208">
<rect width="20" height="20" fill="white" transform="translate(0.5)"/>
</clipPath>
</defs>
</svg>
