<svg width="18" height="18" viewBox="0 0 18 18" fill="none" xmlns="http://www.w3.org/2000/svg">
<path d="M4.875 1.5V3.375H1.5V4.875H7.095C6.70596 5.86039 6.17949 6.78581 5.53125 7.62375C5.11355 7.08398 4.74579 6.50736 4.4325 5.901L4.08825 5.23425L2.7555 5.922L3.099 6.58875C3.49731 7.36016 3.97328 8.08894 4.5195 8.76375C3.83881 9.43475 3.07571 10.0166 2.2485 10.4955L1.59975 10.8705L2.3505 12.1695L3 11.7938C3.91994 11.2613 4.76998 10.6163 5.5305 9.87375C6.29097 10.6164 7.14102 11.2613 8.061 11.7938L8.7105 12.1695L9.46125 10.8712L8.8125 10.4962C7.98498 10.0172 7.22163 9.43507 6.54075 8.76375C7.48052 7.60373 8.20887 6.28742 8.6925 4.875H9.75V3.375H6.375V1.5H4.875ZM12.375 6.873L8.001 16.107L9.357 16.749L10.185 15H14.565L15.393 16.749L16.749 16.107L12.375 6.873ZM13.854 13.5H10.896L12.375 10.377L13.854 13.5Z" fill="#242325"/>
</svg>
