<svg width="21" height="20" viewBox="0 0 21 20" fill="none" xmlns="http://www.w3.org/2000/svg">
<path d="M10.5007 17.4987C11.4856 17.4987 12.4608 17.3047 13.3708 16.9278C14.2807 16.5509 15.1075 15.9984 15.804 15.302C16.5004 14.6056 17.0528 13.7788 17.4297 12.8688C17.8067 11.9589 18.0007 10.9836 18.0007 9.9987C18.0007 9.01378 17.8067 8.03851 17.4297 7.12857C17.0528 6.21863 16.5004 5.39184 15.804 4.6954C15.1075 3.99896 14.2807 3.44651 13.3708 3.0696C12.4608 2.69269 11.4856 2.4987 10.5007 2.4987C8.51153 2.4987 6.60387 3.28887 5.19735 4.6954C3.79083 6.10192 3.00065 8.00957 3.00065 9.9987C3.00065 11.9878 3.79083 13.8955 5.19735 15.302C6.60387 16.7085 8.51153 17.4987 10.5007 17.4987ZM19.6673 9.9987C19.6673 15.0612 15.5632 19.1654 10.5007 19.1654C5.43815 19.1654 1.33398 15.0612 1.33398 9.9987C1.33398 4.9362 5.43815 0.832031 10.5007 0.832031C15.5632 0.832031 19.6673 4.9362 19.6673 9.9987ZM9.66732 14.582V8.33203H11.334V14.582H9.66732ZM11.334 7.08203H9.66399V5.41203H11.334V7.08203Z" fill="#242325"/>
</svg>
