<svg width="21" height="20" viewBox="0 0 21 20" fill="none" xmlns="http://www.w3.org/2000/svg">
<path d="M3 5.0013C3 4.11725 3.35119 3.2694 3.97631 2.64428C4.60143 2.01916 5.44928 1.66797 6.33333 1.66797H18V18.3346H6.33333C5.44928 18.3346 4.60143 17.9834 3.97631 17.3583C3.35119 16.7332 3 15.8854 3 15.0013V5.0013ZM4.66667 12.1138C5.1732 11.8208 5.74819 11.667 6.33333 11.668H16.3333V3.33464H14.6667V8.97297L11.75 7.22297L8.83333 8.97297V3.33464H6.33333C5.89131 3.33464 5.46738 3.51023 5.15482 3.82279C4.84226 4.13535 4.66667 4.55927 4.66667 5.0013V12.1138ZM16.3333 13.3346H6.33333C5.89131 13.3346 5.46738 13.5102 5.15482 13.8228C4.84226 14.1354 4.66667 14.5593 4.66667 15.0013C4.66667 15.4433 4.84226 15.8673 5.15482 16.1798C5.46738 16.4924 5.89131 16.668 6.33333 16.668H16.3333V13.3346ZM13 3.33464H10.5V6.02964L11.75 5.27964L13 6.02964V3.33464Z" fill="#242325"/>
</svg>
