<svg width="21" height="20" viewBox="0 0 21 20" fill="none" xmlns="http://www.w3.org/2000/svg">
<path d="M7.16602 3.33277C6.945 3.33277 6.73304 3.42057 6.57676 3.57685C6.42048 3.73313 6.33268 3.94509 6.33268 4.1661C6.33268 4.38712 6.42048 4.59908 6.57676 4.75536C6.73304 4.91164 6.945 4.99944 7.16602 4.99944C7.38703 4.99944 7.59899 4.91164 7.75527 4.75536C7.91155 4.59908 7.99935 4.38712 7.99935 4.1661C7.99935 3.94509 7.91155 3.73313 7.75527 3.57685C7.59899 3.42057 7.38703 3.33277 7.16602 3.33277ZM4.80768 3.33277C4.97985 2.84483 5.29913 2.4223 5.72152 2.12343C6.1439 1.82456 6.64859 1.66406 7.16602 1.66406C7.68344 1.66406 8.18813 1.82456 8.61052 2.12343C9.0329 2.4223 9.35218 2.84483 9.52435 3.33277H18.8327V4.99944H9.52435C9.35218 5.48738 9.0329 5.90991 8.61052 6.20878C8.18813 6.50765 7.68344 6.66815 7.16602 6.66815C6.64859 6.66815 6.1439 6.50765 5.72152 6.20878C5.29913 5.90991 4.97985 5.48738 4.80768 4.99944H2.16602V3.33277H4.80768ZM11.4743 9.1661C11.6465 8.67816 11.9658 8.25563 12.3882 7.95676C12.8106 7.65789 13.3153 7.4974 13.8327 7.4974C14.3501 7.4974 14.8548 7.65789 15.2772 7.95676C15.6996 8.25563 16.0188 8.67816 16.191 9.1661H18.8327V10.8328H16.191C16.0188 11.3207 15.6996 11.7432 15.2772 12.0421C14.8548 12.341 14.3501 12.5015 13.8327 12.5015C13.3153 12.5015 12.8106 12.341 12.3882 12.0421C11.9658 11.7432 11.6465 11.3207 11.4743 10.8328H2.16602V9.1661H11.4743ZM13.8327 9.1661C13.6117 9.1661 13.3997 9.2539 13.2434 9.41018C13.0871 9.56646 12.9993 9.77842 12.9993 9.99944C12.9993 10.2205 13.0871 10.4324 13.2434 10.5887C13.3997 10.745 13.6117 10.8328 13.8327 10.8328C14.0537 10.8328 14.2657 10.745 14.4219 10.5887C14.5782 10.4324 14.666 10.2205 14.666 9.99944C14.666 9.77842 14.5782 9.56646 14.4219 9.41018C14.2657 9.2539 14.0537 9.1661 13.8327 9.1661ZM7.16602 14.9994C6.945 14.9994 6.73304 15.0872 6.57676 15.2435C6.42048 15.3998 6.33268 15.6118 6.33268 15.8328C6.33268 16.0538 6.42048 16.2657 6.57676 16.422C6.73304 16.5783 6.945 16.6661 7.16602 16.6661C7.38703 16.6661 7.59899 16.5783 7.75527 16.422C7.91155 16.2657 7.99935 16.0538 7.99935 15.8328C7.99935 15.6118 7.91155 15.3998 7.75527 15.2435C7.59899 15.0872 7.38703 14.9994 7.16602 14.9994ZM4.80768 14.9994C4.97985 14.5115 5.29913 14.089 5.72152 13.7901C6.1439 13.4912 6.64859 13.3307 7.16602 13.3307C7.68344 13.3307 8.18813 13.4912 8.61052 13.7901C9.0329 14.089 9.35218 14.5115 9.52435 14.9994H18.8327V16.6661H9.52435C9.35218 17.154 9.0329 17.5766 8.61052 17.8754C8.18813 18.1743 7.68344 18.3348 7.16602 18.3348C6.64859 18.3348 6.1439 18.1743 5.72152 17.8754C5.29913 17.5766 4.97985 17.154 4.80768 16.6661H2.16602V14.9994H4.80768Z" fill="#242325"/>
</svg>
