<svg width="21" height="20" viewBox="0 0 21 20" fill="none" xmlns="http://www.w3.org/2000/svg">
<path d="M3.61882 1.32031L8.33671 6.46365L13.7434 12.3553L18.4606 17.4986L17.3803 18.677L15.1135 16.2061C13.7009 17.0564 12.1132 17.5012 10.4996 17.4986C6.2335 17.4986 2.62341 14.4536 1.39405 10.252L1.31836 9.99865L1.39252 9.74531C1.97467 7.76456 3.08675 6.01871 4.58594 4.73198L2.53701 2.49865L3.61882 1.32031ZM5.67616 5.92031C4.41267 6.95612 3.45702 8.37457 2.92845 9.99865C4.03013 13.3986 7.0049 15.832 10.4996 15.832C11.7465 15.832 12.9262 15.522 13.9781 14.9695L12.6074 13.4753C11.8723 14.0056 10.9917 14.2426 10.1146 14.1463C9.23759 14.05 8.41804 13.6263 7.79475 12.9469C7.17146 12.2675 6.78272 11.3742 6.69438 10.4182C6.60603 9.46226 6.82349 8.50239 7.30995 7.70115L5.67616 5.92031ZM8.42922 8.92031C8.22439 9.38694 8.1574 9.91133 8.23748 10.4212C8.31757 10.9311 8.54079 11.4013 8.87636 11.7671C9.21194 12.1329 9.64335 12.3762 10.1111 12.4635C10.5789 12.5508 11.06 12.4777 11.4881 12.2545L8.42922 8.92031ZM10.4996 4.16531C10.0584 4.16531 9.62646 4.20365 9.20597 4.27781L8.45139 4.41115L8.20674 2.76615L8.96209 2.63281C9.47046 2.54331 9.9846 2.49845 10.4996 2.49865C14.7648 2.49865 18.3749 5.54365 19.6051 9.74531L19.6792 9.99865L19.6051 10.252C19.2924 11.3194 18.8232 12.3246 18.2159 13.2286L17.7641 13.9011L16.5301 12.917L16.9812 12.2445C17.4432 11.5579 17.8105 10.8012 18.0714 9.99865C16.9674 6.59865 13.9934 4.16531 10.4996 4.16531ZM10.8918 5.77031L11.6226 6.01531C12.219 6.21561 12.7614 6.57168 13.2027 7.05256C13.644 7.53343 13.9708 8.12454 14.1548 8.77448L14.3788 9.57115L12.917 10.0603L12.693 9.26365C12.5823 8.87393 12.3861 8.51951 12.1214 8.23112C11.8567 7.94272 11.5315 7.72906 11.1739 7.60865L10.443 7.36365L10.8918 5.77031Z" fill="#242325"/>
</svg>
