<svg width="16" height="16" viewBox="0 0 16 16" fill="none" xmlns="http://www.w3.org/2000/svg">
<path d="M8.00065 0.292969L14.6673 2.6263V7.99964C14.6673 10.751 12.978 12.6743 11.4033 13.8683C10.4528 14.5823 9.41003 15.1643 8.30332 15.5983C8.28403 15.6058 8.2647 15.6131 8.24532 15.6203L8.22865 15.6263L8.22398 15.6276L8.22198 15.6283C8.22132 15.6283 8.22065 15.6283 8.00065 14.9996L7.77998 15.629L7.77732 15.6276L7.77265 15.6263L7.75598 15.6196C7.66694 15.5867 7.57848 15.5523 7.49065 15.5163C6.46031 15.0914 5.48809 14.5374 4.59732 13.8676C3.02398 12.675 1.33398 10.7516 1.33398 8.0003V2.6263L8.00065 0.292969ZM8.00065 14.9996L7.77998 15.629L8.00065 15.7063L8.22132 15.629L8.00065 14.9996ZM8.00065 14.285L8.00665 14.2823C8.92923 13.9013 9.79992 13.4052 10.598 12.8056C12.0233 11.7263 13.334 10.1483 13.334 7.99964V3.57297L8.00065 1.7063L2.66732 3.57297V7.99964C2.66732 10.1483 3.97798 11.725 5.40332 12.8063C6.20316 13.4068 7.07589 13.904 8.00065 14.285ZM12.0487 5.56164L7.33465 10.2756L4.50598 7.44764L5.44932 6.5043L7.33398 8.3903L11.1053 4.61897L12.048 5.56164H12.0487Z" fill="#007018"/>
</svg>
