<svg width="20" height="20" viewBox="0 0 20 20" fill="none" xmlns="http://www.w3.org/2000/svg">
<path d="M14.0913 11.8307C13.9707 11.8307 13.8551 11.7824 13.7699 11.6965C13.6846 11.6105 13.6367 11.494 13.6367 11.3724C13.6367 11.2508 13.6846 11.1343 13.7699 11.0483C13.8551 10.9624 13.9707 10.9141 14.0913 10.9141C14.2118 10.9141 14.3274 10.9624 14.4127 11.0483C14.4979 11.1343 14.5458 11.2508 14.5458 11.3724C14.5458 11.494 14.4979 11.6105 14.4127 11.6965C14.3274 11.7824 14.2118 11.8307 14.0913 11.8307Z" fill="#242325"/>
<path fill-rule="evenodd" clip-rule="evenodd" d="M14.3317 11.6162C14.3335 11.6144 14.3353 11.6127 14.3371 11.6109C14.4011 11.5463 14.4359 11.4601 14.4359 11.3716C14.4359 11.2831 14.4011 11.1969 14.3371 11.1324C14.3353 11.1306 14.3335 11.1288 14.3317 11.1271C14.2679 11.0655 14.1817 11.0299 14.0905 11.0299C13.9993 11.0299 13.913 11.0655 13.8493 11.1271C13.8474 11.1288 13.8456 11.1306 13.8439 11.1324C13.7798 11.1969 13.745 11.2831 13.745 11.3716C13.745 11.4601 13.7798 11.5463 13.8439 11.6109C13.8456 11.6127 13.8474 11.6144 13.8493 11.6162C13.913 11.6777 13.9993 11.7133 14.0905 11.7133C14.1817 11.7133 14.2679 11.6777 14.3317 11.6162ZM13.201 10.4842C13.4358 10.2475 13.7556 10.1133 14.0905 10.1133C14.4254 10.1133 14.7452 10.2475 14.9799 10.4842C15.2145 10.7207 15.345 11.04 15.345 11.3716C15.345 11.7032 15.2145 12.0226 14.9799 12.259C14.7452 12.4957 14.4254 12.6299 14.0905 12.6299C13.7556 12.6299 13.4358 12.4957 13.201 12.259C12.9665 12.0226 12.8359 11.7032 12.8359 11.3716C12.8359 11.04 12.9665 10.7207 13.201 10.4842Z" fill="#242325"/>
<path fill-rule="evenodd" clip-rule="evenodd" d="M12.96 1.58923C13.3485 1.48482 13.7558 1.47184 14.1502 1.55134C14.5446 1.63084 14.9152 1.80059 15.2333 2.047C15.5514 2.29339 15.8085 2.60976 15.9852 2.97131C16.162 3.33284 16.2538 3.73014 16.2539 4.1326V5.41341H14.6539V4.13304C14.6539 4.13297 14.6539 4.13312 14.6539 4.13304C14.6539 3.97367 14.6175 3.81647 14.5478 3.67407C14.4782 3.53162 14.3773 3.40784 14.2535 3.31192C14.1297 3.21602 13.9862 3.15045 13.8341 3.1198C13.6821 3.08916 13.5252 3.09413 13.3753 3.13439C13.3753 3.1344 13.3753 3.13438 13.3753 3.13439L3.37529 5.82297C3.15973 5.88089 2.96778 6.00938 2.83028 6.18985C2.69269 6.37044 2.61753 6.59271 2.61758 6.82215V7.24674H1.01758V6.8225C1.01758 6.82244 1.01758 6.82256 1.01758 6.8225C1.01749 6.24384 1.20694 5.68043 1.55758 5.2202C1.90833 4.75983 2.40103 4.42803 2.95987 4.27784C2.95983 4.27785 2.9599 4.27783 2.95987 4.27784L12.96 1.58923Z" fill="#242325"/>
<path fill-rule="evenodd" clip-rule="evenodd" d="M1.01758 6.41719C1.01758 5.42308 1.82347 4.61719 2.81758 4.61719H17.1812C18.1753 4.61719 18.9812 5.42307 18.9812 6.41719V16.3339C18.9812 17.328 18.1753 18.1339 17.1812 18.1339H2.81758C1.82347 18.1339 1.01758 17.328 1.01758 16.3339V6.41719ZM2.81758 6.21719C2.70712 6.21719 2.61758 6.30673 2.61758 6.41719V16.3339C2.61758 16.4443 2.70712 16.5339 2.81758 16.5339H17.1812C17.2917 16.5339 17.3812 16.4443 17.3812 16.3339V6.41719C17.3812 6.30673 17.2917 6.21719 17.1812 6.21719H2.81758Z" fill="#242325"/>
</svg>
