<svg width="20" height="20" viewBox="0 0 20 20" fill="none" xmlns="http://www.w3.org/2000/svg">
<path d="M2.5 5.0013C2.5 4.11725 2.85119 3.2694 3.47631 2.64428C4.10143 2.01916 4.94928 1.66797 5.83333 1.66797H17.5V18.3346H5.83333C4.94928 18.3346 4.10143 17.9834 3.47631 17.3583C2.85119 16.7332 2.5 15.8854 2.5 15.0013V5.0013ZM4.16667 12.1138C4.6732 11.8208 5.24819 11.667 5.83333 11.668H15.8333V3.33464H14.1667V8.97297L11.25 7.22297L8.33333 8.97297V3.33464H5.83333C5.39131 3.33464 4.96738 3.51023 4.65482 3.82279C4.34226 4.13535 4.16667 4.55927 4.16667 5.0013V12.1138ZM15.8333 13.3346H5.83333C5.39131 13.3346 4.96738 13.5102 4.65482 13.8228C4.34226 14.1354 4.16667 14.5593 4.16667 15.0013C4.16667 15.4433 4.34226 15.8673 4.65482 16.1798C4.96738 16.4924 5.39131 16.668 5.83333 16.668H15.8333V13.3346ZM12.5 3.33464H10V6.02964L11.25 5.27964L12.5 6.02964V3.33464Z" fill="#242325"/>
</svg>
