<svg width="24" height="24" viewBox="0 0 24 24" fill="none" xmlns="http://www.w3.org/2000/svg">
<path d="M20.8551 5.85869C20.7461 5.4687 20.2595 5.3382 19.9732 5.62455L17.8824 7.71541C17.4412 8.15659 16.7258 8.15659 16.2846 7.71541C15.8434 7.27423 15.8434 6.55879 16.2846 6.11762L18.3755 4.02686C18.6618 3.74051 18.5313 3.25394 18.1413 3.14492C16.8235 2.77652 15.3505 3.11047 14.314 4.14702C13.2031 5.25793 12.8993 6.87007 13.4021 8.25541L8.25536 13.402C6.87003 12.8992 5.25791 13.203 4.14697 14.3139C3.11046 15.3505 2.77654 16.8234 3.14491 18.1413C3.25393 18.5313 3.74049 18.6618 4.02684 18.3755L6.11762 16.2846C6.55883 15.8434 7.27415 15.8434 7.71536 16.2846C8.15658 16.7258 8.15658 17.4412 7.71536 17.8824L5.62452 19.9731C5.33817 20.2595 5.46867 20.7461 5.85866 20.8551C7.17653 21.2235 8.64947 20.8895 9.68601 19.853C10.7969 18.7421 11.1007 17.1299 10.5979 15.7446L15.7446 10.5979C17.1299 11.1007 18.742 10.7969 19.853 9.68596C20.8895 8.64952 21.2235 7.17656 20.8551 5.85869Z" fill="#242325"/>
</svg>
