<svg width="20" height="20" viewBox="0 0 20 20" fill="none" xmlns="http://www.w3.org/2000/svg">
<path d="M10 20C15.5228 20 20 15.5228 20 10C20 4.47715 15.5228 0 10 0C4.47715 0 0 4.47715 0 10C0 15.5228 4.47715 20 10 20Z" fill="white"/>
<path fill-rule="evenodd" clip-rule="evenodd" d="M8.33333 0.138264V8.33333H0.138264C0.0473313 8.87535 0 9.43215 0 10C0 10.5679 0.0473313 11.1247 0.138264 11.6667H8.33333V19.8617C8.87535 19.9527 9.43215 20 10 20C10.5679 20 11.1247 19.9527 11.6667 19.8617V11.6667H19.8617C19.9527 11.1247 20 10.5679 20 10C20 9.43215 19.9527 8.87535 19.8617 8.33333H11.6667V0.138264C11.1247 0.0473313 10.5679 0 10 0C9.43215 0 8.87535 0.0473313 8.33333 0.138264Z" fill="#E94B35"/>
</svg>
