<svg width="223" height="35" viewBox="0 0 223 35" fill="none" xmlns="http://www.w3.org/2000/svg">
<path d="M31.4668 17.5361C31.4668 20.0667 31.1449 22.3727 30.501 24.4541C29.8721 26.5205 28.9212 28.3024 27.6484 29.7998C26.3757 31.2822 24.7809 32.4277 22.8643 33.2363C20.9476 34.0449 18.7015 34.4492 16.126 34.4492C13.5055 34.4492 11.2295 34.0449 9.29785 33.2363C7.38118 32.4277 5.78646 31.2747 4.51367 29.7773C3.25586 28.2799 2.3125 26.4906 1.68359 24.4092C1.05469 22.3278 0.740234 20.0218 0.740234 17.4912C0.740234 14.1071 1.29427 11.1572 2.40234 8.6416C3.52539 6.111 5.22493 4.14941 7.50098 2.75684C9.79199 1.34928 12.682 0.645508 16.1709 0.645508C19.585 0.645508 22.4225 1.3418 24.6836 2.73438C26.9447 4.12695 28.6367 6.08854 29.7598 8.61914C30.8978 11.1348 31.4668 14.1071 31.4668 17.5361ZM6.40039 17.5361C6.40039 20.0667 6.74479 22.2604 7.43359 24.1172C8.1224 25.959 9.17806 27.3815 10.6006 28.3848C12.0381 29.373 13.8799 29.8672 16.126 29.8672C18.387 29.8672 20.2288 29.373 21.6514 28.3848C23.0739 27.3815 24.1221 25.959 24.7959 24.1172C25.4697 22.2604 25.8066 20.0667 25.8066 17.5361C25.8066 13.6878 25.0355 10.6781 23.4932 8.50684C21.9658 6.32064 19.5251 5.22754 16.1709 5.22754C13.9248 5.22754 12.0755 5.72168 10.623 6.70996C9.18555 7.69824 8.1224 9.11328 7.43359 10.9551C6.74479 12.7819 6.40039 14.9756 6.40039 17.5361ZM79.6545 1.16211L71.0744 34H65.1896L59.7092 14.3242C59.5744 13.8451 59.4247 13.276 59.26 12.6172C59.0952 11.9583 58.9305 11.2845 58.7658 10.5957C58.6161 9.9069 58.4813 9.27799 58.3615 8.70898C58.2567 8.125 58.1818 7.67578 58.1369 7.36133C58.107 7.67578 58.0396 8.11751 57.9348 8.68652C57.8299 9.25553 57.7027 9.88444 57.5529 10.5732C57.4182 11.2471 57.2684 11.9209 57.1037 12.5947C56.939 13.2536 56.7893 13.8376 56.6545 14.3467L51.2639 34H45.4016L36.8439 1.16211H42.257L46.9963 20.4111C47.146 21.0251 47.2958 21.6914 47.4455 22.4102C47.6102 23.1139 47.76 23.8252 47.8947 24.5439C48.0445 25.2627 48.1792 25.9665 48.299 26.6553C48.4188 27.3291 48.5161 27.943 48.591 28.4971C48.6659 27.9281 48.7632 27.2992 48.883 26.6104C49.0028 25.9066 49.1301 25.1953 49.2648 24.4766C49.4146 23.7428 49.5643 23.0391 49.7141 22.3652C49.8788 21.6914 50.0435 21.085 50.2082 20.5459L55.5539 1.16211H60.8098L66.2678 20.6133C66.4325 21.1673 66.5897 21.7887 66.7395 22.4775C66.9042 23.1663 67.0614 23.8701 67.2111 24.5889C67.3609 25.3076 67.4956 26.0039 67.6154 26.6777C67.7352 27.3516 67.8326 27.958 67.9074 28.4971C68.0122 27.7633 68.147 26.9248 68.3117 25.9814C68.4764 25.0381 68.6636 24.0798 68.8732 23.1064C69.0829 22.1331 69.2925 21.2347 69.5021 20.4111L74.2189 1.16211H79.6545ZM106.954 34L103.742 24.8809H91.1859L87.974 34H82.2914L94.5102 1.02734H100.485L112.681 34H106.954ZM102.349 20.2539L99.227 11.2695C99.1072 10.8802 98.935 10.3337 98.7104 9.62988C98.4857 8.91113 98.2611 8.1849 98.0365 7.45117C97.8119 6.70247 97.6247 6.07357 97.475 5.56445C97.3253 6.17839 97.1381 6.86719 96.9135 7.63086C96.7038 8.37956 96.4942 9.08333 96.2846 9.74219C96.0899 10.401 95.9402 10.9102 95.8354 11.2695L92.6908 20.2539H102.349ZM119.316 34V1.16211H124.707V29.418H138.655V34H119.316ZM146.637 34V1.16211H152.028V29.418H165.976V34H146.637ZM192.557 34H173.959V1.16211H192.557V5.69922H179.35V14.6162H191.726V19.1309H179.35V29.4404H192.557V34ZM213.342 34H207.929V5.74414H198.316V1.16211H222.933V5.74414H213.342V34Z" fill="#7664E4"/>
</svg>
