<svg width="20" height="20" viewBox="0 0 20 20" fill="none" xmlns="http://www.w3.org/2000/svg">
<g clip-path="url(#clip0_387_8241)">
<g clip-path="url(#clip1_387_8241)">
<path fill-rule="evenodd" clip-rule="evenodd" d="M-3.6369 -0.226074H23.6412V20.2285H-3.6369V-0.226074Z" fill="white"/>
<path fill-rule="evenodd" clip-rule="evenodd" d="M-0.648361 5.94824L2.22587 1.73266L2.92568 2.21522L0.0514507 6.4308L-0.648361 5.94824ZM0.401357 6.67208L3.27559 2.4565L3.9754 2.93907L1.10117 7.15465L0.401357 6.67208ZM1.45107 7.39593L4.32531 3.18035L5.02512 3.66291L2.15089 7.87849L1.45107 7.39593Z" fill="black"/>
<path fill-rule="evenodd" clip-rule="evenodd" d="M19.4403 16.5681L15.8967 14.2012L16.1347 13.8491L19.6784 16.216L19.4403 16.5681Z" fill="white"/>
<path fill-rule="evenodd" clip-rule="evenodd" d="M5.73364 7.11475C6.49806 6.00099 7.67702 5.23468 9.01117 4.98437C10.3453 4.73407 11.7254 5.02029 12.8477 5.78006C13.9701 6.53983 14.7428 7.71092 14.9959 9.03571C15.249 10.3605 14.9617 11.7304 14.1973 12.8442L5.73364 7.11475Z" fill="#CD2E3A"/>
<path fill-rule="evenodd" clip-rule="evenodd" d="M5.77904 7.14397C5.01451 8.25873 4.72592 9.63079 4.97676 10.9583C5.22761 12.2859 5.99734 13.4601 7.11662 14.2228C8.2359 14.9854 9.61305 15.274 10.9451 15.0251C12.2772 14.7761 13.455 14.01 14.2196 12.8952C14.6018 12.3378 14.7461 11.6518 14.6207 10.988C14.4953 10.3242 14.1104 9.73712 13.5508 9.35579C12.9911 8.97446 12.3026 8.83017 11.6365 8.95465C10.9705 9.07914 10.3816 9.4622 9.9993 10.0196L5.77904 7.14397Z" fill="#0047A0"/>
<path d="M9.9666 10.0297C10.7619 8.86743 10.4638 7.27993 9.30078 6.4839C8.13777 5.68787 6.55027 5.98475 5.75499 7.14701C4.95971 8.30927 5.25781 9.89677 6.42081 10.6928C7.58382 11.4888 9.17132 11.1919 9.9666 10.0297Z" fill="#CD2E3A"/>
<path fill-rule="evenodd" clip-rule="evenodd" d="M2.85047 15.0323L1.78691 15.7417L1.55009 15.3878L2.61364 14.6785L2.85047 15.0323ZM17.3857 5.33779L16.1449 6.16537L15.9081 5.8115L17.1489 4.98391L17.3857 5.33779ZM19.5128 3.91908L18.4493 4.62843L18.2124 4.27456L19.276 3.5652L19.5128 3.91908Z" fill="white"/>
</g>
</g>
<defs>
<clipPath id="clip0_387_8241">
<rect width="20" height="20" rx="10" fill="white"/>
</clipPath>
<clipPath id="clip1_387_8241">
<rect width="27.5294" height="21.0399" fill="white" transform="translate(-3.76482 -0.39502)"/>
</clipPath>
</defs>
</svg>
