<?xml version="1.0" encoding="utf-8"?>
<!-- Generator: Adobe Illustrator 26.0.0, SVG Export Plug-In . SVG Version: 6.00 Build 0)  -->
<svg version="1.1" id="Layer_1" xmlns="http://www.w3.org/2000/svg" xmlns:xlink="http://www.w3.org/1999/xlink" x="0px" y="0px"
	 viewBox="0 0 1000 500" style="enable-background:new 0 0 1000 500;" xml:space="preserve">
<g>
	<path d="M347.4,265.6c-2.9-4.4-4.4-10.8-4.4-19.2c0-8.4,1.5-14.8,4.4-19.2c2.9-4.4,7.4-6.6,13.4-6.6c6,0,10.5,2.2,13.4,6.6
		c2.9,4.4,4.4,10.8,4.4,19.2c0,8.4-1.5,14.8-4.4,19.2c-2.9,4.4-7.4,6.6-13.4,6.6C354.8,272.2,350.3,270,347.4,265.6z M368.8,262.3
		c1.7-2.8,2.5-6.7,2.5-11.7v-8.3c0-5-0.8-8.9-2.5-11.7c-1.7-2.8-4.4-4.1-8-4.1c-3.7,0-6.3,1.4-8,4.1c-1.7,2.8-2.5,6.7-2.5,11.7v8.3
		c0,5,0.8,8.9,2.5,11.7c1.7,2.8,4.4,4.1,8,4.1C364.5,266.4,367.1,265,368.8,262.3z"/>
	<path d="M383.6,221.5h7.1l5.2,24l3.9,17.8h0.1l4.4-17.8l6.2-24h7.6l6,24l4.4,17.8h0.2l4-17.8l5.5-24h6.8l-12.6,49.8H425l-6.5-25.2
		l-4.2-17.1h-0.1l-4.4,17.1l-6.6,25.2h-7.6L383.6,221.5z"/>
	<path d="M480.2,271.3l-4-13.8h-16.8l-4,13.8h-7l14.9-49.8h9.1l15,49.8H480.2z M468.1,228.5h-0.6l-6.6,23.2h13.8L468.1,228.5z"/>
	<path d="M497.5,271.3v-49.8h6.9v44h23.2v5.8H497.5z"/>
	<path d="M540.3,271.3v-49.8h6.9v44h23.2v5.8H540.3z"/>
	<path d="M581.2,271.3v-49.8h30.9v5.8H588v15.9h23.3v5.8H588v16.6h24.1v5.8H581.2z"/>
	<path d="M642.6,227.3v44h-6.9v-44h-16.2v-5.8h39.3v5.8H642.6z"/>
</g>
</svg>
